<svg xmlns="http://www.w3.org/2000/svg" viewBox="0 0 819.71 247.6"><defs><style>.cls-1{fill:#383639;}.cls-2{fill:#266a9e;}.cls-3{fill:#276b9d;}.cls-4{fill:#71acd9;}</style></defs><title>x-ion_logo_klein</title><g id="Ebene_2" data-name="Ebene 2"><path class="cls-1" d="M26.61,137.55a23.27,23.27,0,0,1-1.26,2.07l-9,14H10.41L23.5,134.22l-12-17.82h5.92l8,12.5c.6,1,1.26,2.14,1.26,2.14h.08s.66-1.18,1.25-2.14l8-12.5h5.92l-12,17.82L43,153.6H37.11l-9-14a23.27,23.27,0,0,1-1.26-2.07h-.22Z" transform="translate(-10.41 -4.56)"/><path class="cls-1" d="M51.75,130.3h21v4.59h-21Z" transform="translate(-10.41 -4.56)"/><path class="cls-1" d="M86.35,101.61H91.6v6.28H86.35Zm.15,14.79h5v37.2h-5Z" transform="translate(-10.41 -4.56)"/><path class="cls-1" d="M120.59,115.51c10.87,0,19.67,8.28,19.67,19.3a19.67,19.67,0,0,1-39.34,0C100.92,123.79,109.72,115.51,120.59,115.51Zm0,34.46c8,0,14.49-6.51,14.49-15.16a14.5,14.5,0,1,0-29,0C106.09,143.46,112.6,150,120.59,150Z" transform="translate(-10.41 -4.56)"/><path class="cls-1" d="M149.65,116.4h4.95v5.54a29.49,29.49,0,0,1-.15,3h.15a15.83,15.83,0,0,1,14.87-9.39c9.17,0,12.42,5.25,12.42,14.42V153.6h-5V131.26c0-5.84-.89-11-8.06-11a14.14,14.14,0,0,0-13.53,10.5,18.21,18.21,0,0,0-.6,5V153.6h-5Z" transform="translate(-10.41 -4.56)"/><path class="cls-1" d="M237.57,100.72c12.05,0,18.48,6.06,18.48,6.06l-2.73,3.85a25.59,25.59,0,0,0-15.53-5.18c-12.57,0-21.08,9.69-21.08,22,0,12.79,8.8,22.26,20.63,22.26,10.14,0,16.35-7.62,16.35-7.62v-8.8h-8.88v-4.58h13.76V153.6h-4.73v-3.92c0-1.11.07-2.22.07-2.22h-.15a23.25,23.25,0,0,1-16.93,7c-14.2,0-25.44-11.46-25.44-26.92C211.39,112.55,222.63,100.72,237.57,100.72Z" transform="translate(-10.41 -4.56)"/><path class="cls-1" d="M269.43,116.4h5v5.54a29.49,29.49,0,0,1-.15,3h.15c1.77-5,7.69-9.39,13.45-9.39,6.88,0,10.43,3.18,11.54,9.32h.15a15.12,15.12,0,0,1,13.68-9.32c9,0,12.35,5.25,12.35,14.42V153.6h-5V131.19c0-6.07-1.26-11.1-8.06-11.1-5.69,0-10.35,5-11.76,10.51a17.59,17.59,0,0,0-.66,5.39V153.6h-5V131.19c0-5.62-.82-11.1-7.84-11.1-6.07,0-10.65,5.26-12.2,10.95a21.59,21.59,0,0,0-.52,5V153.6h-5Z" transform="translate(-10.41 -4.56)"/><path class="cls-1" d="M337.16,101.61h5v18a30.09,30.09,0,0,1-.15,3h.15s3.11-7.17,12.65-7.17c10,0,16.19,8,16.19,19.52,0,11.76-7,19.45-16.79,19.45a13.56,13.56,0,0,1-12.2-7.24h-.15a28.15,28.15,0,0,1,.15,3v3.33h-4.88Zm16.71,48.44c6.59,0,12-5.55,12-15,0-9.09-4.8-14.94-11.75-14.94-6.22,0-12.06,4.44-12.06,15C342,142.58,345.89,150.05,353.87,150.05Z" transform="translate(-10.41 -4.56)"/><path class="cls-1" d="M382.19,101.61h5.1v23.66h30.18V101.61h5.1v52h-5.1V129.86H387.29V153.6h-5.1Z" transform="translate(-10.41 -4.56)"/><rect class="cls-2" x="491.54" width="2.45" height="247.6"/><path class="cls-3" d="M586.8,65.74a5.49,5.49,0,0,1,5.26-3.11c4.08-.06,8.16-.08,12.23-.09,5.24,0,10.48.06,15.72,0a12.24,12.24,0,0,1,11,5.73q10.82,15.91,21.66,31.82,8.76,12.86,17.55,25.69a1.66,1.66,0,0,1,0,2.23q-19,28-37.93,56c-.79,1.16-1.66,2.27-2.56,3.36A11.93,11.93,0,0,1,620,191.8c-8.76-.07-17.52,0-26.29,0-.75,0-1.51,0-2.26-.11a5.28,5.28,0,0,1-4.61-2.89v-2.72c.5-2.73,2.31-4.76,3.8-6.94q7.14-10.38,14.23-20.81,9.92-14.53,19.8-29.07c1.24-1.82,1.23-1.83,0-3.71-8.65-12.92-17.4-25.77-26.1-38.66-3.16-4.67-6.21-9.41-9.5-14a13.77,13.77,0,0,1-2.2-4.42Z" transform="translate(-10.41 -4.56)"/><path class="cls-3" d="M825.62,19.49s0,.12.06.13c4.23,1.69,5.11,4.17,2.64,8.07-2.15,3.39-4.49,6.67-6.76,10L761.1,126.12c-.29.42-.55.84-.83,1.26a2.35,2.35,0,0,1-2,.52H718.21a2.63,2.63,0,0,1-2-.51,8.27,8.27,0,0,1,1.41-2.28Q750.8,76.26,784,27.39c2.45-3.6,5.19-6.76,9.62-7.9Z" transform="translate(-10.41 -4.56)"/><path class="cls-4" d="M682.63,19.49c4.92,1.22,7.45,5,10,8.93,5.61,8.42,11.42,16.71,17.15,25,1.82,2.65,3.62,5.32,5.5,7.94a1.68,1.68,0,0,1,0,2.27q-10.37,15-20.63,30c-.8,1.17-1.13,1.09-1.89,0Q670.83,61.3,648.76,29a12.08,12.08,0,0,1-2-3.88A4.05,4.05,0,0,1,649.4,20c.4-.16.92-.08,1.19-.54Z" transform="translate(-10.41 -4.56)"/><path class="cls-4" d="M716.22,127.39h44q8,11.64,16,23.27,12.87,18.63,25.8,37.23t25.8,37.24a17.39,17.39,0,0,1,1.63,2.71c1.67,3.69-.06,6.57-4.1,6.9-.8.06-1.61.05-2.42.05-8.41,0-16.83-.18-25.23.06-5.36.15-9.17-2-12.09-6.27q-9.92-14.44-19.87-28.86l-49.14-71.39C716.45,128,716.17,127.79,716.22,127.39Z" transform="translate(-10.41 -4.56)"/><path class="cls-3" d="M693.74,159.43c.34.44.63.77.88,1.14q10.35,15,20.72,30.09a1.65,1.65,0,0,1,0,2.24q-11.67,17.16-23.3,34.36a33.1,33.1,0,0,1-2.88,3.68,10.92,10.92,0,0,1-8.37,3.86q-14.13,0-28.25,0a12.1,12.1,0,0,1-1.21-.06c-4-.37-5.66-3.19-4.07-6.82a14.44,14.44,0,0,1,1.27-2.22q22.18-32.56,44.4-65.11C693.16,160.22,693.42,159.87,693.74,159.43Z" transform="translate(-10.41 -4.56)"/></g></svg>