<?xml version="1.0" encoding="UTF-8"?>
<svg width="698px" height="334px" viewBox="0 0 698 334" version="1.1" xmlns="http://www.w3.org/2000/svg" xmlns:xlink="http://www.w3.org/1999/xlink">
    <!-- Generator: Sketch 52.5 (67469) - http://www.bohemiancoding.com/sketch -->
    <title>Artboard Copy</title>
    <desc>Created with Sketch.</desc>
    <defs>
        <polygon id="path-1" points="0.6915 0.12 29.7695 0.12 29.7695 45.3797 0.6915 45.3797"></polygon>
        <polygon id="path-3" points="0.0079 0.12 29.0859 0.12 29.0859 45.3797 0.0079 45.3797"></polygon>
    </defs>
    <g id="Artboard-Copy" stroke="none" stroke-width="1" fill="none" fill-rule="evenodd">
        <g id="runconf-header-logo-01-copy-2" transform="translate(0.000000, 1.000000)">
            <path d="M0,1 L241.48,1" id="Path" stroke="#E85454" stroke-width="4"></path>
            <path d="M2,238.48 L2,3" id="Path" stroke="#E85454" stroke-width="4"></path>
            <path d="M241.48,1 L697.76,1" id="Path" stroke="#E85454" stroke-width="4"></path>
            <path d="M241.48,238.48 L241.48,3" id="Path" stroke="#E85454" stroke-width="4"></path>
            <path d="M695.76,238.48 L695.76,3" id="Path" stroke="#E85454" stroke-width="4"></path>
            <path d="M0,240.48 L241.48,240.48" id="Path" stroke="#E85454" stroke-width="4"></path>
            <path d="M2,328.6 L2,242.48" id="Path" stroke="#E85454" stroke-width="4"></path>
            <path d="M241.48,240.48 L697.76,240.48" id="Path" stroke="#E85454" stroke-width="4"></path>
            <path d="M695.76,328.6 L695.76,242.48" id="Path" stroke="#E85454" stroke-width="4"></path>
            <path d="M0,330.6 L241.48,330.6" id="Path" stroke="#E85454" stroke-width="4"></path>
            <path d="M241.48,330.6 L697.76,330.6" id="Path" stroke="#E85454" stroke-width="4"></path>
            <polygon id="Path" fill="#E85454" points="74.55 66.61 36.85 104.31 119.42 186.89 201.59 104.72 163.48 66.61"></polygon>
            <path d="M125.9,141.6 C118.65,134.35 109.69,131.81 103.53,137.97 C97.37,144.13 99.9,153.08 107.16,160.34 C114.42,167.6 123.37,170.13 129.53,163.97 C135.69,157.81 133.16,148.86 125.9,141.6 Z M119.17,148.33 C124.5,153.66 125.17,156.45 123.59,158.04 C122.01,159.63 119.21,158.95 113.88,153.62 C108.55,148.29 107.88,145.5 109.46,143.91 C111.04,142.32 113.84,143 119.17,148.33 Z M158.66,134.08 L133.42,108.84 L127.22,115.04 L138.63,126.45 L122.08,120.18 L115.51,126.75 L140.75,152 L146.95,145.8 L135.27,134.12 L152.27,140.51 L158.66,134.08 Z M157.46,96.51 L151.6,90.65 L136.83,105.43 L162.07,130.67 L168.61,124.13 L158.75,114.27 L165.44,107.58 L159.58,101.72 L152.89,108.41 L149.22,104.74 L157.46,96.51 Z" id="Shape" fill="#5C4594" fill-rule="nonzero"></path>
            <path d="M96.34,112.72 L79.18,95.57 L72.83,101.92 L89.83,118.92 C91.34,120.43 91.26,122.32 89.64,123.92 C88.02,125.52 86.16,125.58 84.64,124.07 L67.64,107.07 L61.1,113.61 L78.25,130.76 C83.54,136.05 90.46,135.48 95.75,130.19 C101.04,124.9 101.61,117.98 96.32,112.7 L96.34,112.72 Z M125.24,100 L100,74.76 L93.8,81 L105.21,92.41 L88.66,86.09 L82.08,92.66 L107.32,117.9 L113.52,111.7 L101.85,100 L118.85,106.39 L125.24,100 Z M137.08,71.31 L130.47,77.92 C132.66,80.56 132.66,81.62 131.68,82.61 C129.56,84.73 126.73,82.42 122.16,77.85 C117.59,73.28 115.36,70.52 117.48,68.4 C118.35,67.53 119.37,67.34 121.64,69.31 L128.18,62.77 C122.18,57.4 117.03,56.99 111.67,62.35 C105.1,68.93 106.8,75.91 115.45,84.57 C124.1,93.23 131.09,94.92 137.52,88.5 C143.3,82.72 143,78.18 137.11,71.31 L137.08,71.31 Z" id="Shape" fill="#5C4594" fill-rule="nonzero"></path>
        </g>
        <path d="M282.754,44.48 C282.754,43.6533292 282.526669,42.8990034 282.072,42.217 C281.617331,41.5349966 280.728673,41.194 279.406,41.194 L276.864,41.194 L276.864,47.766 L279.406,47.766 C280.728673,47.766 281.617331,47.4250034 282.072,46.743 C282.526669,46.0609966 282.754,45.3066708 282.754,44.48 Z M285.296,73 L277.112,57.5 L276.864,57.5 L276.864,73 L266.076,73 L266.076,31.584 L279.902,31.584 C281.927343,31.584 283.797658,31.8939969 285.513,32.514 C287.228342,33.1340031 288.695661,34.0019944 289.915,35.118 C291.134339,36.2340056 292.084997,37.5876587 292.767,39.179 C293.449003,40.7703413 293.79,42.5373236 293.79,44.48 C293.79,46.9600124 293.263005,49.1609904 292.209,51.083 C291.154995,53.0050096 289.63601,54.503328 287.652,55.578 L297.758,73 L285.296,73 Z M334.338,59.732 C334.338,61.9226776 333.976337,63.8756581 333.253,65.591 C332.529663,67.3063419 331.506673,68.7529941 330.184,69.931 C328.861327,71.1090059 327.290676,72.0183301 325.472,72.659 C323.653324,73.2996699 321.669344,73.62 319.52,73.62 C317.329322,73.62 315.335009,73.2996699 313.537,72.659 C311.738991,72.0183301 310.178673,71.1090059 308.856,69.931 C307.533327,68.7529941 306.510337,67.3063419 305.787,65.591 C305.063663,63.8756581 304.702,61.9226776 304.702,59.732 L304.702,31.584 L315.428,31.584 L315.428,59.484 C315.428,60.7240062 315.799996,61.6953298 316.544,62.398 C317.288004,63.1006702 318.321327,63.452 319.644,63.452 C320.966673,63.452 322.01033,63.1006702 322.775,62.398 C323.53967,61.6953298 323.922,60.7240062 323.922,59.484 L323.922,31.584 L334.338,31.584 L334.338,59.732 Z M364.408,59.608 C364.408,58.6573286 364.098003,57.779004 363.478,56.973 C362.857997,56.166996 361.804007,55.764 360.316,55.764 L354.55,55.764 L354.55,63.452 L360.316,63.452 C361.804007,63.452 362.857997,63.049004 363.478,62.243 C364.098003,61.436996 364.408,60.5586714 364.408,59.608 Z M363.354,44.046 C363.354,43.3433298 363.126669,42.6820031 362.672,42.062 C362.217331,41.4419969 361.370006,41.132 360.13,41.132 L354.55,41.132 L354.55,46.96 L360.13,46.96 C361.370006,46.96 362.217331,46.6500031 362.672,46.03 C363.126669,45.4099969 363.354,44.7486702 363.354,44.046 Z M375.444,59.98 C375.444,61.9226764 375.103003,63.6896587 374.421,65.281 C373.738997,66.8723413 372.747007,68.2363276 371.445,69.373 C370.142993,70.5096723 368.572343,71.3983301 366.733,72.039 C364.893657,72.6796699 362.837345,73 360.564,73 L343.824,73 L343.824,31.584 L359.82,31.584 C361.928011,31.584 363.860325,31.852664 365.617,32.39 C367.373675,32.927336 368.89266,33.7023283 370.174,34.715 C371.45534,35.7276717 372.457663,36.9883258 373.181,38.497 C373.904337,40.0056742 374.266,41.7313236 374.266,43.674 C374.266,45.2446745 373.97667,46.7119932 373.398,48.076 C372.81933,49.4400068 372.034005,50.4733298 371.042,51.176 C371.910004,51.7546696 372.63333,52.4056631 373.212,53.129 C373.79067,53.8523369 374.245332,54.616996 374.576,55.423 C374.906668,56.229004 375.133999,57.0246627 375.258,57.81 C375.382001,58.5953373 375.444,59.3186634 375.444,59.98 Z M401.732,54.772 L401.732,73 L391.006,73 L391.006,54.772 L379.04,31.584 L391.254,31.584 L396.648,43.302 L402.104,31.584 L413.76,31.584 L401.732,54.772 Z M473.218,59.732 C473.218,61.9226776 472.856337,63.8756581 472.133,65.591 C471.409663,67.3063419 470.386673,68.7529941 469.064,69.931 C467.741327,71.1090059 466.170676,72.0183301 464.352,72.659 C462.533324,73.2996699 460.549344,73.62 458.4,73.62 C456.209322,73.62 454.215009,73.2996699 452.417,72.659 C450.618991,72.0183301 449.058673,71.1090059 447.736,69.931 C446.413327,68.7529941 445.390337,67.3063419 444.667,65.591 C443.943663,63.8756581 443.582,61.9226776 443.582,59.732 L443.582,31.584 L454.308,31.584 L454.308,59.484 C454.308,60.7240062 454.679996,61.6953298 455.424,62.398 C456.168004,63.1006702 457.201327,63.452 458.524,63.452 C459.846673,63.452 460.89033,63.1006702 461.655,62.398 C462.41967,61.6953298 462.802,60.7240062 462.802,59.484 L462.802,31.584 L473.218,31.584 L473.218,59.732 Z M502.234,73 L493.554,53.842 L493.554,73 L483.386,73 L483.386,31.584 L494.174,31.584 L502.606,50.308 L502.606,31.584 L512.774,31.584 L512.774,73 L502.234,73 Z M552.454,59.174 C552.247332,61.778013 551.865003,63.9996575 551.307,65.839 C550.748997,67.6783425 549.922339,69.1766609 548.827,70.334 C547.731661,71.4913391 546.357342,72.3283307 544.704,72.845 C543.050658,73.3616693 541.046012,73.62 538.69,73.62 C533.399307,73.62 529.596678,71.8530177 527.282,68.319 C524.967322,64.7849823 523.81,59.4427024 523.81,52.292 C523.81,48.7373156 524.088997,45.6270133 524.647,42.961 C525.205003,40.2949867 526.093661,38.0733422 527.313,36.296 C528.532339,34.5186578 530.10299,33.1856711 532.025,32.297 C533.94701,31.4083289 536.25132,30.964 538.938,30.964 C543.360689,30.964 546.605323,32.1109885 548.672,34.405 C550.738677,36.6990115 551.895999,40.18131 552.144,44.852 L541.418,44.852 C541.293999,43.1159913 540.994336,41.9896692 540.519,41.473 C540.043664,40.9563308 539.45467,40.698 538.752,40.698 C537.015991,40.698 535.931002,41.6899901 535.497,43.674 C535.062998,45.6580099 534.846,48.5306479 534.846,52.292 C534.846,54.1520093 534.887333,55.8156593 534.97,57.283 C535.052667,58.7503407 535.228332,59.979995 535.497,60.972 C535.765668,61.964005 536.158331,62.7183308 536.675,63.235 C537.191669,63.7516692 537.883996,64.01 538.752,64.01 C539.578671,64.01 540.208998,63.7000031 540.643,63.08 C541.077002,62.4599969 541.397332,61.1580099 541.604,59.174 L552.454,59.174 Z M581.78,52.292 C581.78,50.1013224 581.676668,48.2620074 581.47,46.774 C581.263332,45.2859926 580.974002,44.0976711 580.602,43.209 C580.229998,42.3203289 579.775336,41.6796686 579.238,41.287 C578.700664,40.8943314 578.101337,40.698 577.44,40.698 C576.778663,40.698 576.179336,40.8943314 575.642,41.287 C575.104664,41.6796686 574.650002,42.3203289 574.278,43.209 C573.905998,44.0976711 573.616668,45.2859926 573.41,46.774 C573.203332,48.2620074 573.1,50.1013224 573.1,52.292 C573.1,54.4826776 573.203332,56.3219926 573.41,57.81 C573.616668,59.2980074 573.905998,60.4863289 574.278,61.375 C574.650002,62.2636711 575.104664,62.9043314 575.642,63.297 C576.179336,63.6896686 576.778663,63.886 577.44,63.886 C578.101337,63.886 578.700664,63.6896686 579.238,63.297 C579.775336,62.9043314 580.229998,62.2636711 580.602,61.375 C580.974002,60.4863289 581.263332,59.2980074 581.47,57.81 C581.676668,56.3219926 581.78,54.4826776 581.78,52.292 Z M592.816,52.292 C592.816,55.2680149 592.485337,58.057987 591.824,60.662 C591.162663,63.266013 590.19134,65.5289904 588.91,67.451 C587.62866,69.3730096 586.02701,70.8816612 584.105,71.977 C582.18299,73.0723388 579.961346,73.62 577.44,73.62 C574.918654,73.62 572.69701,73.0723388 570.775,71.977 C568.85299,70.8816612 567.25134,69.3730096 565.97,67.451 C564.68866,65.5289904 563.717337,63.266013 563.056,60.662 C562.394663,58.057987 562.064,55.2680149 562.064,52.292 C562.064,49.3159851 562.394663,46.5363463 563.056,43.953 C563.717337,41.3696537 564.68866,39.1170096 565.97,37.195 C567.25134,35.2729904 568.85299,33.7540056 570.775,32.638 C572.69701,31.5219944 574.918654,30.964 577.44,30.964 C579.961346,30.964 582.18299,31.5219944 584.105,32.638 C586.02701,33.7540056 587.62866,35.2729904 588.91,37.195 C590.19134,39.1170096 591.162663,41.3696537 591.824,43.953 C592.485337,46.5363463 592.816,49.3159851 592.816,52.292 Z M621.274,73 L612.594,53.842 L612.594,73 L602.426,73 L602.426,31.584 L613.214,31.584 L621.646,50.308 L621.646,31.584 L631.814,31.584 L631.814,73 L621.274,73 Z M654.32,41.194 L654.32,47.208 L665.294,47.208 L665.294,56.818 L654.32,56.818 L654.32,73 L643.594,73 L643.594,31.584 L667.836,31.584 L667.836,41.194 L654.32,41.194 Z M283.684,141 L283.684,124.26 L275.996,124.26 L275.996,141 L265.27,141 L265.27,99.584 L275.996,99.584 L275.996,114.65 L283.684,114.65 L283.684,99.584 L294.41,99.584 L294.41,141 L283.684,141 Z M319.21,112.108 L316.358,124.818 L322.124,124.818 L319.21,112.108 Z M325.782,141 L323.984,133.002 L314.56,133.002 L312.762,141 L302.284,141 L312.204,99.584 L326.774,99.584 L336.694,141 L325.782,141 Z M368.686,141 L368.686,118.556 L364.098,127.484 L358.89,127.484 L354.302,118.556 L354.302,141 L343.886,141 L343.886,99.584 L354.55,99.584 L361.494,112.356 L368.438,99.584 L379.412,99.584 L379.412,141 L368.686,141 Z M409.048,127.608 C409.048,126.657329 408.738003,125.779004 408.118,124.973 C407.497997,124.166996 406.444007,123.764 404.956,123.764 L399.19,123.764 L399.19,131.452 L404.956,131.452 C406.444007,131.452 407.497997,131.049004 408.118,130.243 C408.738003,129.436996 409.048,128.558671 409.048,127.608 Z M407.994,112.046 C407.994,111.34333 407.766669,110.682003 407.312,110.062 C406.857331,109.441997 406.010006,109.132 404.77,109.132 L399.19,109.132 L399.19,114.96 L404.77,114.96 C406.010006,114.96 406.857331,114.650003 407.312,114.03 C407.766669,113.409997 407.994,112.74867 407.994,112.046 Z M420.084,127.98 C420.084,129.922676 419.743003,131.689659 419.061,133.281 C418.378997,134.872341 417.387007,136.236328 416.085,137.373 C414.782993,138.509672 413.212343,139.39833 411.373,140.039 C409.533657,140.67967 407.477345,141 405.204,141 L388.464,141 L388.464,99.584 L404.46,99.584 C406.568011,99.584 408.500325,99.852664 410.257,100.39 C412.013675,100.927336 413.53266,101.702328 414.814,102.715 C416.09534,103.727672 417.097663,104.988326 417.821,106.497 C418.544337,108.005674 418.906,109.731324 418.906,111.674 C418.906,113.244675 418.61667,114.711993 418.038,116.076 C417.45933,117.440007 416.674005,118.47333 415.682,119.176 C416.550004,119.75467 417.27333,120.405663 417.852,121.129 C418.43067,121.852337 418.885332,122.616996 419.216,123.423 C419.546668,124.229004 419.773999,125.024663 419.898,125.81 C420.022001,126.595337 420.084,127.318663 420.084,127.98 Z M458.338,127.732 C458.338,129.922678 457.976337,131.875658 457.253,133.591 C456.529663,135.306342 455.506673,136.752994 454.184,137.931 C452.861327,139.109006 451.290676,140.01833 449.472,140.659 C447.653324,141.29967 445.669344,141.62 443.52,141.62 C441.329322,141.62 439.335009,141.29967 437.537,140.659 C435.738991,140.01833 434.178673,139.109006 432.856,137.931 C431.533327,136.752994 430.510337,135.306342 429.787,133.591 C429.063663,131.875658 428.702,129.922678 428.702,127.732 L428.702,99.584 L439.428,99.584 L439.428,127.484 C439.428,128.724006 439.799996,129.69533 440.544,130.398 C441.288004,131.10067 442.321327,131.452 443.644,131.452 C444.966673,131.452 446.01033,131.10067 446.775,130.398 C447.53967,129.69533 447.922,128.724006 447.922,127.484 L447.922,99.584 L458.338,99.584 L458.338,127.732 Z M486.114,112.48 C486.114,111.653329 485.886669,110.899003 485.432,110.217 C484.977331,109.534997 484.088673,109.194 482.766,109.194 L480.224,109.194 L480.224,115.766 L482.766,115.766 C484.088673,115.766 484.977331,115.425003 485.432,114.743 C485.886669,114.060997 486.114,113.306671 486.114,112.48 Z M488.656,141 L480.472,125.5 L480.224,125.5 L480.224,141 L469.436,141 L469.436,99.584 L483.262,99.584 C485.287343,99.584 487.157658,99.8939969 488.873,100.514 C490.588342,101.134003 492.055661,102.001994 493.275,103.118 C494.494339,104.234006 495.444997,105.587659 496.127,107.179 C496.809003,108.770341 497.15,110.537324 497.15,112.48 C497.15,114.960012 496.623005,117.16099 495.569,119.083 C494.514995,121.00501 492.99601,122.503328 491.012,123.578 L501.118,141 L488.656,141 Z M537.14,139.016 C534.990656,140.008005 532.89301,140.689998 530.847,141.062 C528.80099,141.434002 526.600012,141.62 524.244,141.62 C521.061317,141.62 518.405677,141.031006 516.277,139.853 C514.148323,138.674994 512.433007,137.104343 511.131,135.141 C509.828993,133.177657 508.899003,130.914679 508.341,128.352 C507.782997,125.789321 507.504,123.102681 507.504,120.292 C507.504,117.60532 507.803664,114.980679 508.403,112.418 C509.002336,109.855321 509.963327,107.58201 511.286,105.598 C512.608673,103.61399 514.344656,102.012339 516.494,100.793 C518.643344,99.5736606 521.247318,98.964 524.306,98.964 C528.39802,98.964 531.477323,100.100655 533.544,102.374 C535.610677,104.647345 536.809332,107.747314 537.14,111.674 L526.414,111.674 C526.248666,110.557994 525.959335,109.783002 525.546,109.349 C525.132665,108.914998 524.533337,108.698 523.748,108.698 C522.755995,108.698 521.919003,109.01833 521.237,109.659 C520.554997,110.29967 520.017669,111.157328 519.625,112.232 C519.232331,113.306672 518.953334,114.54666 518.788,115.952 C518.622666,117.35734 518.54,118.803993 518.54,120.292 C518.54,121.738674 518.612333,123.154326 518.757,124.539 C518.901667,125.923674 519.190998,127.163661 519.625,128.259 C520.059002,129.354339 520.668663,130.232663 521.454,130.894 C522.239337,131.555337 523.251994,131.886 524.492,131.886 C524.822668,131.886 525.142998,131.865334 525.453,131.824 C525.763002,131.782666 526.083332,131.720667 526.414,131.638 L526.414,126.12 L522.694,126.12 L522.694,116.634 L537.14,116.634 L537.14,139.016 Z M294.658,176.822 C294.658,178.186007 294.461669,179.498327 294.069,180.759 C293.676331,182.019673 293.211336,183.125329 292.674,184.076 C291.847329,185.48134 290.845006,186.648995 289.667,187.579 C288.488994,188.509005 287.238673,189.387329 285.916,190.214 C284.799994,190.91667 283.735672,191.608997 282.723,192.291 C281.710328,192.973003 280.790671,193.66533 279.964,194.368 C279.137329,195.07067 278.445003,195.835329 277.887,196.662 C277.328997,197.488671 276.946668,198.397995 276.74,199.39 L294.038,199.39 L294.038,209 L265.58,209 L265.58,202.552 C265.58,199.86532 265.848664,197.612676 266.386,195.794 C266.923336,193.975324 267.729328,192.342674 268.804,190.896 C269.837338,189.449326 271.108326,188.147339 272.617,186.99 C274.125674,185.832661 275.933989,184.592673 278.042,183.27 C279.075338,182.649997 279.88133,182.143669 280.46,181.751 C281.03867,181.358331 281.61733,180.87267 282.196,180.294 C283.146671,179.343329 283.622,178.186007 283.622,176.822 C283.622,176.491332 283.570334,176.129669 283.467,175.737 C283.363666,175.344331 283.177668,174.982668 282.909,174.652 C282.640332,174.321332 282.299335,174.042334 281.886,173.815 C281.472665,173.587666 280.956003,173.474 280.336,173.474 C279.674663,173.474 278.941004,173.525666 278.135,173.629 C277.328996,173.732334 276.378339,173.990665 275.283,174.404 C274.187661,174.817335 272.896007,175.437329 271.408,176.264 C269.919993,177.090671 268.163343,178.227326 266.138,179.674 L266.138,168.514 C267.502007,167.604662 268.772994,166.850336 269.951,166.251 C271.129006,165.651664 272.275994,165.166002 273.392,164.794 C274.508006,164.421998 275.613661,164.153334 276.709,163.988 C277.804339,163.822666 278.951327,163.74 280.15,163.74 C282.919347,163.74 285.233991,164.132663 287.094,164.918 C288.954009,165.703337 290.441994,166.715994 291.558,167.956 C292.674006,169.196006 293.469664,170.601325 293.945,172.172 C294.420336,173.742675 294.658,175.292659 294.658,176.822 Z M324.294,186.68 C324.294,185.605328 324.283667,184.489339 324.263,183.332 C324.242333,182.174661 324.190667,181.079339 324.108,180.046 C324.025333,179.012661 323.880668,178.072338 323.674,177.225 C323.467332,176.377662 323.157335,175.706002 322.744,175.21 C322.454665,174.879332 322.082669,174.621001 321.628,174.435 C321.173331,174.248999 320.470671,174.156 319.52,174.156 C318.569329,174.156 317.866669,174.248999 317.412,174.435 C316.957331,174.621001 316.585335,174.879332 316.296,175.21 C315.882665,175.706002 315.572668,176.377662 315.366,177.225 C315.159332,178.072338 315.004334,179.012661 314.901,180.046 C314.797666,181.079339 314.746,182.174661 314.746,183.332 L314.746,190.028 C314.746,191.185339 314.797666,192.280662 314.901,193.314 C315.004334,194.347339 315.159332,195.287662 315.366,196.135 C315.572668,196.982338 315.882665,197.653998 316.296,198.15 C316.585335,198.480668 316.957331,198.738999 317.412,198.925 C317.866669,199.111001 318.569329,199.204 319.52,199.204 C320.470671,199.204 321.173331,199.111001 321.628,198.925 C322.082669,198.738999 322.454665,198.480668 322.744,198.15 C323.157335,197.653998 323.467332,196.982338 323.674,196.135 C323.880668,195.287662 324.025333,194.347339 324.108,193.314 C324.190667,192.280662 324.242333,191.185339 324.263,190.028 C324.283667,188.870661 324.294,187.754672 324.294,186.68 Z M335.33,186.68 C335.33,188.912011 335.247334,191.061323 335.082,193.128 C334.916666,195.194677 334.637669,197.106325 334.245,198.863 C333.852331,200.619675 333.346003,202.179993 332.726,203.544 C332.105997,204.908007 331.341338,206.003329 330.432,206.83 C329.233327,207.904672 327.662676,208.638331 325.72,209.031 C323.777324,209.423669 321.710678,209.62 319.52,209.62 C317.329322,209.62 315.262676,209.423669 313.32,209.031 C311.377324,208.638331 309.806673,207.904672 308.608,206.83 C307.698662,206.003329 306.934003,204.908007 306.314,203.544 C305.693997,202.179993 305.187669,200.619675 304.795,198.863 C304.402331,197.106325 304.123334,195.194677 303.958,193.128 C303.792666,191.061323 303.71,188.912011 303.71,186.68 C303.71,184.447989 303.792666,182.298677 303.958,180.232 C304.123334,178.165323 304.402331,176.253675 304.795,174.497 C305.187669,172.740325 305.693997,171.180007 306.314,169.816 C306.934003,168.451993 307.698662,167.356671 308.608,166.53 C309.806673,165.455328 311.377324,164.721669 313.32,164.329 C315.262676,163.936331 317.329322,163.74 319.52,163.74 C321.710678,163.74 323.777324,163.936331 325.72,164.329 C327.662676,164.721669 329.233327,165.455328 330.432,166.53 C331.341338,167.356671 332.105997,168.451993 332.726,169.816 C333.346003,171.180007 333.852331,172.740325 334.245,174.497 C334.637669,176.253675 334.916666,178.165323 335.082,180.232 C335.247334,182.298677 335.33,184.447989 335.33,186.68 Z M357.898,209 L357.898,177.442 L346.552,187.982 L346.552,174.218 L357.278,164.36 L368.686,164.36 L368.686,209 L357.898,209 Z M403.778,178.682 C403.778,176.987325 403.302671,175.695671 402.352,174.807 C401.401329,173.918329 400.202674,173.474 398.756,173.474 C397.309326,173.474 396.121005,173.918329 395.191,174.807 C394.260995,175.695671 393.796,176.987325 393.796,178.682 C393.796,180.376675 394.260995,181.668329 395.191,182.557 C396.121005,183.445671 397.309326,183.89 398.756,183.89 C400.202674,183.89 401.401329,183.445671 402.352,182.557 C403.302671,181.668329 403.778,180.376675 403.778,178.682 Z M414.814,178.682 C414.814,181.575348 414.287005,184.406653 413.233,187.176 C412.178995,189.945347 410.804675,192.631987 409.11,195.236 C407.456658,197.840013 405.627677,200.288989 403.623,202.583 C401.618323,204.877011 399.686009,207.01599 397.826,209 L384,209 C386.604013,206.561321 389.166654,203.978014 391.688,201.25 C394.209346,198.521986 396.565322,195.794014 398.756,193.066 C398.342665,193.231334 397.877669,193.314 397.361,193.314 L395.904,193.314 C394.333325,193.314 392.773008,192.983337 391.223,192.322 C389.672992,191.660663 388.278006,190.699673 387.038,189.439 C385.797994,188.178327 384.785337,186.649009 384,184.851 C383.214663,183.052991 382.822,180.996678 382.822,178.682 C382.822,176.449989 383.214663,174.424676 384,172.606 C384.785337,170.787324 385.870326,169.216673 387.255,167.894 C388.639674,166.571327 390.313657,165.548337 392.277,164.825 C394.240343,164.101663 396.399988,163.74 398.756,163.74 C401.112012,163.74 403.271657,164.101663 405.235,164.825 C407.198343,165.548337 408.892993,166.571327 410.319,167.894 C411.745007,169.216673 412.850663,170.787324 413.636,172.606 C414.421337,174.424676 414.814,176.449989 414.814,178.682 Z" id="RUBY-UNCONF-HAMBURG-Copy-2" fill="#5C4594"></path>
        <g id="Group-29-Copy" transform="translate(19.000000, 263.000000)">
            <polygon id="Fill-1" fill="#E85454" points="24.552 4.8436 17.608 17.6156 10.664 4.8436 0 4.8436 0 46.2596 10.416 46.2596 10.416 23.8156 15.004 32.7446 20.212 32.7446 24.799 23.8156 24.799 46.2596 35.526 46.2596 35.526 4.8436"></polygon>
            <path d="M60.3864,4.8436 L50.4654,46.2596 L60.9444,46.2596 L62.7424,38.2616 L72.1654,38.2616 L73.9634,46.2596 L84.8764,46.2596 L74.9564,4.8436 L60.3864,4.8436 Z M67.3934,17.3676 L70.3064,30.0776 L64.5404,30.0776 L67.3934,17.3676 Z" id="Fill-2" fill="#E85454"></path>
            <polygon id="Fill-3" fill="#E85454" points="115.5357 4.8436 110.0797 16.5616 104.6857 4.8436 92.4717 4.8436 104.4377 28.0316 104.4377 46.2596 115.1637 46.2596 115.1637 28.0316 127.1917 4.8436"></polygon>
            <g id="Group-28" transform="translate(173.000000, 0.879900)">
                <g id="Group-6">
                    <mask id="mask-2" fill="white">
                        <use xlink:href="#path-1"></use>
                    </mask>
                    <g id="Clip-5"></g>
                    <path d="M29.7695,13.2017 C29.7695,14.5657 29.5725,15.8787 29.1805,17.1387 C28.7875,18.4007 28.3225,19.5057 27.7855,20.4557 C26.9575,21.8617 25.9565,23.0287 24.7785,23.9587 C23.6005,24.8887 22.3495,25.7677 21.0275,26.5937 C19.9115,27.2977 18.8465,27.9897 17.8335,28.6707 C16.8215,29.3527 15.9015,30.0457 15.0755,30.7477 C14.2485,31.4517 13.5565,32.2157 12.9985,33.0417 C12.4405,33.8687 12.0575,34.7787 11.8515,35.7707 L29.1495,35.7707 L29.1495,45.3797 L0.6915,45.3797 L0.6915,38.9317 C0.6915,36.2447 0.9595,33.9937 1.4975,32.1737 C2.0345,30.3557 2.8395,28.7237 3.9155,27.2767 C4.9485,25.8287 6.2185,24.5277 7.7285,23.3697 C9.2365,22.2137 11.0445,20.9727 13.1535,19.6497 C14.1855,19.0297 14.9925,18.5247 15.5715,18.1307 C16.1495,17.7387 16.7275,17.2537 17.3075,16.6737 C18.2575,15.7237 18.7335,14.5657 18.7335,13.2017 C18.7335,12.8717 18.6805,12.5107 18.5785,12.1167 C18.4745,11.7247 18.2895,11.3637 18.0205,11.0317 C17.7505,10.7017 17.4105,10.4227 16.9975,10.1947 C16.5835,9.9687 16.0675,9.8537 15.4475,9.8537 C14.7865,9.8537 14.0525,9.9067 13.2465,10.0087 C12.4405,10.1127 11.4895,10.3707 10.3945,10.7837 C9.2985,11.1977 8.0075,11.8177 6.5195,12.6437 C5.0315,13.4717 3.2745,14.6077 1.2485,16.0537 L1.2485,4.8937 C2.6135,3.9857 3.8845,3.2307 5.0625,2.6307 C6.2405,2.0327 7.3875,1.5457 8.5025,1.1737 C9.6195,0.8017 10.7245,0.5337 11.8205,0.3677 C12.9155,0.2027 14.0625,0.1197 15.2615,0.1197 C18.0305,0.1197 20.3455,0.5137 22.2055,1.2977 C24.0655,2.0837 25.5535,3.0957 26.6685,4.3357 C27.7855,5.5757 28.5815,6.9817 29.0565,8.5517 C29.5315,10.1227 29.7695,11.6737 29.7695,13.2017" id="Fill-4" fill="#E85454" mask="url(#mask-2)"></path>
                </g>
                <path d="M74.5332,28.7637 C74.5332,31.7397 73.9742,34.2917 72.8582,36.4207 C71.7432,38.5497 70.1812,40.3067 68.1782,41.6907 C66.1732,43.0767 63.7852,44.0987 61.0162,44.7597 C58.2472,45.4207 55.1882,45.7517 51.8412,45.7517 L47.2532,45.7517 L47.2532,35.4597 L51.6542,35.4597 C52.8112,35.4597 54.0722,35.4097 55.4362,35.3047 C56.8012,35.2017 58.0812,34.9327 59.2802,34.4987 C60.4792,34.0657 61.4812,33.4137 62.2882,32.5457 C63.0942,31.6777 63.4972,30.4797 63.4972,28.9507 C63.4972,27.5027 62.9702,26.3987 61.9162,25.6327 C60.8612,24.8677 59.1972,24.4857 56.9252,24.4857 C55.1052,24.4857 53.4422,24.5887 51.9332,24.7957 C50.4252,25.0027 48.7812,25.2507 47.0052,25.5397 L48.4932,0.7397 L73.4172,0.7397 L73.4172,10.3497 L58.5372,10.3497 L58.2262,14.9377 C58.5562,14.8557 59.0122,14.8137 59.5912,14.8137 L61.2642,14.8137 C63.6612,14.8137 65.6972,15.1767 67.3722,15.8987 C69.0462,16.6227 70.4102,17.6247 71.4642,18.9057 C72.5172,20.1877 73.2932,21.6757 73.7892,23.3697 C74.2852,25.0657 74.5332,26.8637 74.5332,28.7637" id="Fill-7" fill="#E85454"></path>
                <polygon id="Fill-9" fill="#E85454" points="101.5635 6.1909 101.5635 24.7329 95.3105 24.7329 95.3105 6.1909 89.7445 6.1909 89.7445 0.5879 107.1295 0.5879 107.1295 6.1909"></polygon>
                <polygon id="Fill-11" fill="#E85454" points="127.1006 24.7334 127.1006 14.9744 122.6186 14.9744 122.6186 24.7334 116.3656 24.7334 116.3656 0.5884 122.6186 0.5884 122.6186 9.3724 127.1006 9.3724 127.1006 0.5884 133.3536 0.5884 133.3536 24.7334"></polygon>
                <path d="M193.5156,16.4878 L190.6626,29.1978 L196.4296,29.1978 L193.5156,16.4878 Z M200.0866,45.3798 L198.2886,37.3818 L188.8656,37.3818 L187.0676,45.3798 L176.5886,45.3798 L186.5096,3.9638 L201.0786,3.9638 L210.9986,45.3798 L200.0866,45.3798 Z" id="Fill-13" fill="#E85454"></path>
                <polygon id="Fill-15" fill="#E85454" points="245.0684 45.3799 236.3884 26.2219 236.3884 45.3799 226.2204 45.3799 226.2204 3.9639 237.0074 3.9639 245.4404 22.6879 245.4404 3.9639 255.6084 3.9639 255.6084 45.3799"></polygon>
                <path d="M291.6982,24.6719 C291.6982,23.3079 291.5322,22.0269 291.2022,20.8279 C290.8712,19.6299 290.4162,18.5649 289.8382,17.6349 C289.2592,16.7049 288.5772,15.9099 287.7922,15.2479 C287.0072,14.5879 286.1592,14.1319 285.2502,13.8839 L285.2502,35.4599 C286.1592,35.2119 287.0072,34.7369 287.7922,34.0339 C288.5772,33.3309 289.2592,32.5049 289.8382,31.5539 C290.4162,30.6039 290.8712,29.5289 291.2022,28.3299 C291.5322,27.1319 291.6982,25.9119 291.6982,24.6719 M302.7342,24.6719 C302.7342,27.6899 302.2382,30.4589 301.2462,32.9799 C300.2542,35.5009 298.8482,37.6829 297.0302,39.5209 C295.2112,41.3599 292.9782,42.7979 290.3342,43.8299 C287.6882,44.8639 284.7322,45.3799 281.4682,45.3799 L274.4622,45.3799 L274.4622,3.9639 L281.4682,3.9639 C284.7322,3.9639 287.6882,4.4809 290.3342,5.5139 C292.9782,6.5469 295.2112,7.9939 297.0302,9.8539 C298.8482,11.7139 300.2542,13.9049 301.2462,16.4259 C302.2382,18.9479 302.7342,21.6959 302.7342,24.6719" id="Fill-17" fill="#E85454"></path>
                <g id="Group-21" transform="translate(354.000000, 0.000000)">
                    <mask id="mask-4" fill="white">
                        <use xlink:href="#path-3"></use>
                    </mask>
                    <g id="Clip-20"></g>
                    <path d="M29.0859,13.2017 C29.0859,14.5657 28.8889,15.8787 28.4969,17.1387 C28.1039,18.4007 27.6389,19.5057 27.1019,20.4557 C26.2739,21.8617 25.2729,23.0287 24.0949,23.9587 C22.9169,24.8887 21.6659,25.7677 20.3439,26.5937 C19.2279,27.2977 18.1629,27.9897 17.1499,28.6707 C16.1379,29.3527 15.2179,30.0457 14.3919,30.7477 C13.5649,31.4517 12.8729,32.2157 12.3149,33.0417 C11.7569,33.8687 11.3739,34.7787 11.1679,35.7707 L28.4659,35.7707 L28.4659,45.3797 L0.0079,45.3797 L0.0079,38.9317 C0.0079,36.2447 0.2759,33.9937 0.8139,32.1737 C1.3509,30.3557 2.1559,28.7237 3.2319,27.2767 C4.2649,25.8287 5.5349,24.5277 7.0449,23.3697 C8.5529,22.2137 10.3609,20.9727 12.4699,19.6497 C13.5019,19.0297 14.3089,18.5247 14.8879,18.1307 C15.4659,17.7387 16.0439,17.2537 16.6239,16.6737 C17.5739,15.7237 18.0499,14.5657 18.0499,13.2017 C18.0499,12.8717 17.9969,12.5107 17.8949,12.1167 C17.7909,11.7247 17.6059,11.3637 17.3369,11.0317 C17.0669,10.7017 16.7269,10.4227 16.3139,10.1947 C15.8999,9.9687 15.3839,9.8537 14.7639,9.8537 C14.1029,9.8537 13.3689,9.9067 12.5629,10.0087 C11.7569,10.1127 10.8059,10.3707 9.7109,10.7837 C8.6149,11.1977 7.3239,11.8177 5.8359,12.6437 C4.3479,13.4717 2.5909,14.6077 0.5649,16.0537 L0.5649,4.8937 C1.9299,3.9857 3.2009,3.2307 4.3789,2.6307 C5.5569,2.0327 6.7039,1.5457 7.8189,1.1737 C8.9359,0.8017 10.0409,0.5337 11.1369,0.3677 C12.2319,0.2027 13.3789,0.1197 14.5779,0.1197 C17.3469,0.1197 19.6619,0.5137 21.5219,1.2977 C23.3819,2.0837 24.8699,3.0957 25.9849,4.3357 C27.1019,5.5757 27.8979,6.9817 28.3729,8.5517 C28.8479,10.1227 29.0859,11.6737 29.0859,13.2017" id="Fill-19" fill="#E85454" mask="url(#mask-4)"></path>
                </g>
                <path d="M419.2998,31.0576 C419.2998,29.3646 418.8348,28.0726 417.9048,27.1826 C416.9748,26.2936 415.7858,25.8506 414.3398,25.8506 C412.8928,25.8506 411.6948,26.2936 410.7438,27.1826 C409.7928,28.0726 409.3188,29.3646 409.3188,31.0576 C409.3188,32.7526 409.7928,34.0436 410.7438,34.9326 C411.6948,35.8226 412.8928,36.2666 414.3398,36.2666 C415.7858,36.2666 416.9748,35.8226 417.9048,34.9326 C418.8348,34.0436 419.2998,32.7526 419.2998,31.0576 M430.2748,31.0576 C430.2748,33.2896 429.8808,35.3156 429.0958,37.1336 C428.3108,38.9536 427.2258,40.5236 425.8408,41.8456 C424.4558,43.1686 422.7808,44.1926 420.8198,44.9146 C418.8558,45.6376 416.6958,45.9996 414.3398,45.9996 C411.9848,45.9996 409.8228,45.6376 407.8618,44.9146 C405.8978,44.1926 404.2028,43.1686 402.7778,41.8456 C401.3508,40.5236 400.2448,38.9536 399.4598,37.1336 C398.6748,35.3156 398.2818,33.2896 398.2818,31.0576 C398.2818,28.1646 398.8088,25.3326 399.8628,22.5636 C400.9168,19.7956 402.2908,17.1076 403.9868,14.5036 C405.6388,11.8996 407.4678,9.4506 409.4728,7.1566 C411.4778,4.8626 413.4098,2.7246 415.2698,0.7396 L429.0958,0.7396 C426.4918,3.1796 423.9288,5.7616 421.4078,8.4896 C418.8868,11.2176 416.5298,13.9456 414.3398,16.6736 C414.7528,16.5096 415.2178,16.4256 415.7358,16.4256 L417.1928,16.4256 C418.7628,16.4256 420.3228,16.7576 421.8728,17.4176 C423.4228,18.0796 424.8188,19.0406 426.0578,20.3006 C427.2978,21.5616 428.3108,23.1016 429.0958,24.9196 C429.8808,26.7396 430.2748,28.7856 430.2748,31.0576" id="Fill-22" fill="#E85454"></path>
                <polygon id="Fill-24" fill="#E85454" points="455.9775 6.1909 455.9775 24.7329 449.7245 24.7329 449.7245 6.1909 444.1585 6.1909 444.1585 0.5879 461.5435 0.5879 461.5435 6.1909"></polygon>
                <polygon id="Fill-26" fill="#E85454" points="481.5146 24.7334 481.5146 14.9744 477.0326 14.9744 477.0326 24.7334 470.7796 24.7334 470.7796 0.5884 477.0326 0.5884 477.0326 9.3724 481.5146 9.3724 481.5146 0.5884 487.7676 0.5884 487.7676 24.7334"></polygon>
            </g>
        </g>
    </g>
</svg>