<?xml version="1.0" encoding="UTF-8"?>
<svg width="702px" height="177px" viewBox="0 0 702 177" version="1.1" xmlns="http://www.w3.org/2000/svg" xmlns:xlink="http://www.w3.org/1999/xlink">
    <!-- Generator: Sketch 50.2 (55047) - http://www.bohemiancoding.com/sketch -->
    <title>Slice 1</title>
    <desc>Created with Sketch.</desc>
    <defs></defs>
    <g id="Page-1" stroke="none" stroke-width="1" fill="none" fill-rule="evenodd">
        <g id="header" transform="translate(2.000000, 2.000000)">
            <path d="M0,0 L241.48,0 M2,170.841816 L2,1.43878909 M241.48,0 L697.76,0 M241.48,170.841816 L241.48,1.43878909 M695.76,170.841816 L695.76,1.43878909 M0,172.280605 L241.48,172.280605 M241.48,172.280605 L697.76,172.280605" id="Shape" stroke="#E85454" stroke-width="4"></path>
            <polygon id="Shape" fill="#E85454" fill-rule="nonzero" points="74.55 32.61 36.85 70.31 119.42 152.89 201.59 70.72 163.48 32.61"></polygon>
            <path d="M125.9,107.6 C118.65,100.35 109.69,97.81 103.53,103.97 C97.37,110.13 99.9,119.08 107.16,126.34 C114.42,133.6 123.37,136.13 129.53,129.97 C135.69,123.81 133.16,114.86 125.9,107.6 Z M120.559473,114.704125 C125.889473,120.034125 126.559473,122.824125 124.979473,124.414125 C123.399473,126.004125 120.599473,125.324125 115.269473,119.994125 C109.939473,114.664125 109.269473,111.874125 110.849473,110.284125 C112.429473,108.694125 115.229473,109.374125 120.559473,114.704125 Z M158.66,100.08 L133.42,74.84 L127.22,81.04 L138.63,92.45 L122.08,86.18 L115.51,92.75 L140.75,118 L146.95,111.8 L135.27,100.12 L152.27,106.51 L158.66,100.08 Z M157.46,62.51 L151.6,56.65 L136.83,71.43 L162.07,96.67 L168.61,90.13 L158.75,80.27 L165.44,73.58 L159.58,67.72 L152.89,74.41 L149.22,70.74 L157.46,62.51 Z M96.34,78.72 L79.18,61.57 L72.83,67.92 L89.83,84.92 C91.34,86.43 91.26,88.32 89.64,89.92 C88.02,91.52 86.16,91.58 84.64,90.07 L67.64,73.07 L61.1,79.61 L78.25,96.76 C83.54,102.05 90.46,101.48 95.75,96.19 C101.04,90.9 101.61,83.98 96.32,78.7 L96.34,78.72 Z M125.24,66 L100,40.76 L93.8,47 L105.21,58.41 L88.66,52.09 L82.08,58.66 L107.32,83.9 L113.52,77.7 L101.85,66 L118.85,72.39 L125.24,66 Z M137.08,37.31 L130.47,43.92 C132.66,46.56 132.66,47.62 131.68,48.61 C129.56,50.73 126.73,48.42 122.16,43.85 C117.59,39.28 115.36,36.52 117.48,34.4 C118.35,33.53 119.37,33.34 121.64,35.31 L128.18,28.77 C122.18,23.4 117.03,22.99 111.67,28.35 C105.1,34.93 106.8,41.91 115.45,50.57 C124.1,59.23 131.09,60.92 137.52,54.5 C143.3,48.72 143,44.18 137.11,37.31 L137.08,37.31 Z M537.47,137.7 L537.47,115.31 L523,115.31 L523,124.8 L526.72,124.8 L526.72,130.32 C526.095146,130.49422 525.448633,130.578402 524.8,130.57 C519.8,130.57 518.8,124.74 518.8,118.98 C518.8,112.98 519.98,107.39 524.01,107.39 C525.56,107.39 526.37,108.13 526.68,110.39 L537.41,110.39 C536.79,102.58 532.7,97.68 524.58,97.68 C512.3,97.68 507.78,108.28 507.78,119.01 C507.78,130.17 511.87,140.34 524.52,140.34 C528.963061,140.480862 533.37839,139.590951 537.42,137.74 L537.47,137.7 Z M486.42,111.2 C486.42,112.87 485.68,114.49 483.07,114.49 L480.53,114.49 L480.53,107.92 L483.07,107.92 C485.67,107.92 486.42,109.53 486.42,111.21 L486.42,111.2 Z M501.42,139.73 L491.31,122.31 C495.22,120.14 497.45,116.17 497.45,111.21 C497.45,103.46 491.75,98.31 483.56,98.31 L469.77,98.31 L469.77,139.73 L480.56,139.73 L480.56,124.23 L480.81,124.23 L488.99,139.73 L501.42,139.73 Z M458.64,126.46 L458.64,98.26 L448.25,98.26 L448.25,126.16 C448.25,128.64 446.64,130.16 443.97,130.16 C441.3,130.16 439.75,128.67 439.75,126.16 L439.75,98.26 L429,98.26 L429,126.41 C429,135.09 435.14,140.3 443.82,140.3 C452.5,140.3 458.64,135.09 458.64,126.41 L458.64,126.46 Z M409.35,126.29 C409.35,128.21 408.23,130.13 405.26,130.13 L399.49,130.13 L399.49,122.44 L405.26,122.44 C408.26,122.44 409.35,124.36 409.35,126.28 L409.35,126.29 Z M408.3,110.72 C408.3,112.08 407.56,113.63 405.08,113.63 L399.5,113.63 L399.5,107.8 L405.08,107.8 C407.56,107.8 408.3,109.35 408.3,110.71 L408.3,110.72 Z M420.39,126.64 C420.39,123.97 419.52,120.07 415.99,117.84 C417.99,116.48 419.21,113.44 419.21,110.34 C419.21,102.53 413.13,98.25 404.76,98.25 L388.76,98.25 L388.76,139.67 L405.5,139.67 C414.68,139.67 420.38,134.34 420.38,126.67 L420.39,126.64 Z M379.71,139.67 L379.71,98.26 L368.71,98.26 L361.83,111 L354.89,98.23 L344.22,98.23 L344.22,139.65 L354.64,139.65 L354.64,117.24 L359.23,126.17 L364.44,126.17 L369.03,117.24 L369.03,139.68 L379.71,139.67 Z M322.46,123.5 L316.69,123.5 L319.54,110.79 L322.46,123.5 Z M337,139.68 L327.08,98.26 L312.54,98.26 L302.62,139.68 L313.1,139.68 L314.9,131.68 L324.32,131.68 L326.12,139.68 L337,139.68 Z M294.72,139.68 L294.72,98.26 L284,98.26 L284,113.33 L276.31,113.33 L276.31,98.26 L265.6,98.26 L265.6,139.68 L276.33,139.68 L276.33,122.94 L284,122.94 L284,139.68 L294.72,139.68 Z M665.69,40.87 L665.69,31.26 L641.44,31.26 L641.44,72.68 L652.17,72.68 L652.17,56.5 L663.17,56.5 L663.17,46.89 L652.17,46.89 L652.17,40.89 L665.69,40.87 Z M629.69,72.68 L629.69,31.26 L619.5,31.26 L619.5,50 L611.07,31.28 L600.28,31.28 L600.28,72.68 L610.45,72.68 L610.45,53.52 L619.13,72.68 L629.69,72.68 Z M579.63,52 C579.63,60.74 577.89,63.59 575.29,63.59 C572.69,63.59 571,60.71 571,52 C571,43.29 572.74,40.41 575.34,40.41 C577.94,40.41 579.68,43.26 579.68,52 L579.63,52 Z M590.68,52 C590.68,40.1 585.41,30.67 575.3,30.67 C565.19,30.67 559.91,40.07 559.91,52 C559.91,63.93 565.18,73.33 575.29,73.33 C585.4,73.33 590.67,63.88 590.67,52 L590.68,52 Z M552.79,58.88 L541.94,58.88 C541.57,62.88 540.7,63.72 539.09,63.72 C535.62,63.72 535.18,59.5 535.18,52 C535.18,44.5 535.61,40.41 539.09,40.41 C540.52,40.41 541.51,41.09 541.76,44.56 L552.49,44.56 C551.99,35.26 548.09,30.67 539.28,30.67 C528.49,30.67 524.15,37.8 524.15,52 C524.15,66.2 528.48,73.3 539,73.3 C548.49,73.3 552,69.3 552.76,58.85 L552.79,58.88 Z M513.11,72.68 L513.11,31.26 L502.94,31.26 L502.94,50 L494.51,31.28 L483.72,31.28 L483.72,72.68 L493.89,72.68 L493.89,53.52 L502.57,72.68 L513.11,72.68 Z M473.55,59.41 L473.55,31.26 L463.13,31.26 L463.13,59.16 C463.13,61.64 461.52,63.16 458.85,63.16 C456.18,63.16 454.63,61.67 454.63,59.16 L454.63,31.26 L443.91,31.26 L443.91,59.41 C443.91,68.09 450.05,73.3 458.73,73.3 C467.41,73.3 473.55,68.09 473.55,59.41 Z M414.09,31.26 L402.44,31.26 L397,43 L391.61,31.28 L379.37,31.28 L391.37,54.47 L391.37,72.68 L402.1,72.68 L402.1,54.45 L414.09,31.26 Z M364.74,59.26 C364.74,61.18 363.62,63.1 360.65,63.1 L354.88,63.1 L354.88,55.44 L360.65,55.44 C363.65,55.44 364.74,57.36 364.74,59.28 L364.74,59.26 Z M363.69,43.72 C363.69,45.08 362.95,46.63 360.47,46.63 L354.89,46.63 L354.89,40.81 L360.47,40.81 C362.95,40.81 363.69,42.36 363.69,43.72 Z M375.78,59.65 C375.78,56.98 374.91,53.08 371.38,50.85 C373.38,49.49 374.6,46.45 374.6,43.35 C374.6,35.54 368.52,31.26 360.15,31.26 L344.15,31.26 L344.15,72.68 L360.9,72.68 C370.08,72.68 375.78,67.35 375.78,59.68 L375.78,59.65 Z M334.67,59.43 L334.67,31.26 L324.26,31.26 L324.26,59.16 C324.26,61.64 322.65,63.16 319.98,63.16 C317.31,63.16 315.76,61.67 315.76,59.16 L315.76,31.26 L305,31.26 L305,59.41 C305,68.09 311.14,73.3 319.82,73.3 C328.5,73.3 334.64,68.09 334.64,59.41 L334.67,59.43 Z M283.09,44.16 C283.09,45.83 282.35,47.45 279.74,47.45 L277.2,47.45 L277.2,40.87 L279.74,40.87 C282.34,40.87 283.09,42.48 283.09,44.16 Z M298.09,72.68 L288,55.26 C291.91,53.09 294.14,49.12 294.14,44.16 C294.14,36.41 288.44,31.26 280.25,31.26 L266.41,31.26 L266.41,72.68 L277.2,72.68 L277.2,57.18 L277.45,57.18 L285.63,72.68 L298.09,72.68 Z" id="Shape" fill="#5C4594" fill-rule="nonzero"></path>
        </g>
    </g>
</svg>