<?xml version="1.0" encoding="UTF-8"?>
<svg width="698px" height="334px" viewBox="0 0 698 334" version="1.1" xmlns="http://www.w3.org/2000/svg" xmlns:xlink="http://www.w3.org/1999/xlink">
    <!-- Generator: Sketch 52.5 (67469) - http://www.bohemiancoding.com/sketch -->
    <title>Artboard</title>
    <desc>Created with Sketch.</desc>
    <defs>
        <polygon id="path-1" points="0.6915 0.12 29.7695 0.12 29.7695 45.3797 0.6915 45.3797"></polygon>
        <polygon id="path-3" points="0.0079 0.12 29.0859 0.12 29.0859 45.3797 0.0079 45.3797"></polygon>
    </defs>
    <g id="Artboard" stroke="none" stroke-width="1" fill="none" fill-rule="evenodd">
        <g id="runconf-header-logo-01-copy-2" transform="translate(0.000000, 1.000000)">
            <path d="M0,1 L241.48,1" id="Path" stroke="#E85454" stroke-width="4"></path>
            <path d="M2,238.48 L2,3" id="Path" stroke="#E85454" stroke-width="4"></path>
            <path d="M241.48,1 L697.76,1" id="Path" stroke="#E85454" stroke-width="4"></path>
            <path d="M241.48,238.48 L241.48,3" id="Path" stroke="#E85454" stroke-width="4"></path>
            <path d="M695.76,238.48 L695.76,3" id="Path" stroke="#E85454" stroke-width="4"></path>
            <path d="M0,240.48 L241.48,240.48" id="Path" stroke="#E85454" stroke-width="4"></path>
            <path d="M2,328.6 L2,242.48" id="Path" stroke="#E85454" stroke-width="4"></path>
            <path d="M241.48,240.48 L697.76,240.48" id="Path" stroke="#E85454" stroke-width="4"></path>
            <path d="M695.76,328.6 L695.76,242.48" id="Path" stroke="#E85454" stroke-width="4"></path>
            <path d="M0,330.6 L241.48,330.6" id="Path" stroke="#E85454" stroke-width="4"></path>
            <path d="M241.48,330.6 L697.76,330.6" id="Path" stroke="#E85454" stroke-width="4"></path>
            <polygon id="Path" fill="#E85454" points="74.55 66.61 36.85 104.31 119.42 186.89 201.59 104.72 163.48 66.61"></polygon>
            <path d="M125.9,141.6 C118.65,134.35 109.69,131.81 103.53,137.97 C97.37,144.13 99.9,153.08 107.16,160.34 C114.42,167.6 123.37,170.13 129.53,163.97 C135.69,157.81 133.16,148.86 125.9,141.6 Z M119.17,148.33 C124.5,153.66 125.17,156.45 123.59,158.04 C122.01,159.63 119.21,158.95 113.88,153.62 C108.55,148.29 107.88,145.5 109.46,143.91 C111.04,142.32 113.84,143 119.17,148.33 Z M158.66,134.08 L133.42,108.84 L127.22,115.04 L138.63,126.45 L122.08,120.18 L115.51,126.75 L140.75,152 L146.95,145.8 L135.27,134.12 L152.27,140.51 L158.66,134.08 Z M157.46,96.51 L151.6,90.65 L136.83,105.43 L162.07,130.67 L168.61,124.13 L158.75,114.27 L165.44,107.58 L159.58,101.72 L152.89,108.41 L149.22,104.74 L157.46,96.51 Z" id="Shape" fill="#5C4594" fill-rule="nonzero"></path>
            <path d="M96.34,112.72 L79.18,95.57 L72.83,101.92 L89.83,118.92 C91.34,120.43 91.26,122.32 89.64,123.92 C88.02,125.52 86.16,125.58 84.64,124.07 L67.64,107.07 L61.1,113.61 L78.25,130.76 C83.54,136.05 90.46,135.48 95.75,130.19 C101.04,124.9 101.61,117.98 96.32,112.7 L96.34,112.72 Z M125.24,100 L100,74.76 L93.8,81 L105.21,92.41 L88.66,86.09 L82.08,92.66 L107.32,117.9 L113.52,111.7 L101.85,100 L118.85,106.39 L125.24,100 Z M137.08,71.31 L130.47,77.92 C132.66,80.56 132.66,81.62 131.68,82.61 C129.56,84.73 126.73,82.42 122.16,77.85 C117.59,73.28 115.36,70.52 117.48,68.4 C118.35,67.53 119.37,67.34 121.64,69.31 L128.18,62.77 C122.18,57.4 117.03,56.99 111.67,62.35 C105.1,68.93 106.8,75.91 115.45,84.57 C124.1,93.23 131.09,94.92 137.52,88.5 C143.3,82.72 143,78.18 137.11,71.31 L137.08,71.31 Z" id="Shape" fill="#5C4594" fill-rule="nonzero"></path>
        </g>
        <text id="RUBY-UNCONF-HAMBURG-Copy-2" font-family="OCRF-Bold, OCRF" font-size="62" font-weight="bold" line-spacing="68" fill="#5C4594">
            <tspan x="260" y="82">RUBY UNCONF</tspan>
            <tspan x="260" y="150">HAMBURG</tspan>
            <tspan x="260" y="218">2019</tspan>
        </text>
        <g id="Group-29-Copy" transform="translate(19.000000, 263.000000)">
            <polygon id="Fill-1" fill="#E85454" points="24.552 4.8436 17.608 17.6156 10.664 4.8436 0 4.8436 0 46.2596 10.416 46.2596 10.416 23.8156 15.004 32.7446 20.212 32.7446 24.799 23.8156 24.799 46.2596 35.526 46.2596 35.526 4.8436"></polygon>
            <path d="M60.3864,4.8436 L50.4654,46.2596 L60.9444,46.2596 L62.7424,38.2616 L72.1654,38.2616 L73.9634,46.2596 L84.8764,46.2596 L74.9564,4.8436 L60.3864,4.8436 Z M67.3934,17.3676 L70.3064,30.0776 L64.5404,30.0776 L67.3934,17.3676 Z" id="Fill-2" fill="#E85454"></path>
            <polygon id="Fill-3" fill="#E85454" points="115.5357 4.8436 110.0797 16.5616 104.6857 4.8436 92.4717 4.8436 104.4377 28.0316 104.4377 46.2596 115.1637 46.2596 115.1637 28.0316 127.1917 4.8436"></polygon>
            <g id="Group-28" transform="translate(173.000000, 0.879900)">
                <g id="Group-6">
                    <mask id="mask-2" fill="white">
                        <use xlink:href="#path-1"></use>
                    </mask>
                    <g id="Clip-5"></g>
                    <path d="M29.7695,13.2017 C29.7695,14.5657 29.5725,15.8787 29.1805,17.1387 C28.7875,18.4007 28.3225,19.5057 27.7855,20.4557 C26.9575,21.8617 25.9565,23.0287 24.7785,23.9587 C23.6005,24.8887 22.3495,25.7677 21.0275,26.5937 C19.9115,27.2977 18.8465,27.9897 17.8335,28.6707 C16.8215,29.3527 15.9015,30.0457 15.0755,30.7477 C14.2485,31.4517 13.5565,32.2157 12.9985,33.0417 C12.4405,33.8687 12.0575,34.7787 11.8515,35.7707 L29.1495,35.7707 L29.1495,45.3797 L0.6915,45.3797 L0.6915,38.9317 C0.6915,36.2447 0.9595,33.9937 1.4975,32.1737 C2.0345,30.3557 2.8395,28.7237 3.9155,27.2767 C4.9485,25.8287 6.2185,24.5277 7.7285,23.3697 C9.2365,22.2137 11.0445,20.9727 13.1535,19.6497 C14.1855,19.0297 14.9925,18.5247 15.5715,18.1307 C16.1495,17.7387 16.7275,17.2537 17.3075,16.6737 C18.2575,15.7237 18.7335,14.5657 18.7335,13.2017 C18.7335,12.8717 18.6805,12.5107 18.5785,12.1167 C18.4745,11.7247 18.2895,11.3637 18.0205,11.0317 C17.7505,10.7017 17.4105,10.4227 16.9975,10.1947 C16.5835,9.9687 16.0675,9.8537 15.4475,9.8537 C14.7865,9.8537 14.0525,9.9067 13.2465,10.0087 C12.4405,10.1127 11.4895,10.3707 10.3945,10.7837 C9.2985,11.1977 8.0075,11.8177 6.5195,12.6437 C5.0315,13.4717 3.2745,14.6077 1.2485,16.0537 L1.2485,4.8937 C2.6135,3.9857 3.8845,3.2307 5.0625,2.6307 C6.2405,2.0327 7.3875,1.5457 8.5025,1.1737 C9.6195,0.8017 10.7245,0.5337 11.8205,0.3677 C12.9155,0.2027 14.0625,0.1197 15.2615,0.1197 C18.0305,0.1197 20.3455,0.5137 22.2055,1.2977 C24.0655,2.0837 25.5535,3.0957 26.6685,4.3357 C27.7855,5.5757 28.5815,6.9817 29.0565,8.5517 C29.5315,10.1227 29.7695,11.6737 29.7695,13.2017" id="Fill-4" fill="#E85454" mask="url(#mask-2)"></path>
                </g>
                <path d="M74.5332,28.7637 C74.5332,31.7397 73.9742,34.2917 72.8582,36.4207 C71.7432,38.5497 70.1812,40.3067 68.1782,41.6907 C66.1732,43.0767 63.7852,44.0987 61.0162,44.7597 C58.2472,45.4207 55.1882,45.7517 51.8412,45.7517 L47.2532,45.7517 L47.2532,35.4597 L51.6542,35.4597 C52.8112,35.4597 54.0722,35.4097 55.4362,35.3047 C56.8012,35.2017 58.0812,34.9327 59.2802,34.4987 C60.4792,34.0657 61.4812,33.4137 62.2882,32.5457 C63.0942,31.6777 63.4972,30.4797 63.4972,28.9507 C63.4972,27.5027 62.9702,26.3987 61.9162,25.6327 C60.8612,24.8677 59.1972,24.4857 56.9252,24.4857 C55.1052,24.4857 53.4422,24.5887 51.9332,24.7957 C50.4252,25.0027 48.7812,25.2507 47.0052,25.5397 L48.4932,0.7397 L73.4172,0.7397 L73.4172,10.3497 L58.5372,10.3497 L58.2262,14.9377 C58.5562,14.8557 59.0122,14.8137 59.5912,14.8137 L61.2642,14.8137 C63.6612,14.8137 65.6972,15.1767 67.3722,15.8987 C69.0462,16.6227 70.4102,17.6247 71.4642,18.9057 C72.5172,20.1877 73.2932,21.6757 73.7892,23.3697 C74.2852,25.0657 74.5332,26.8637 74.5332,28.7637" id="Fill-7" fill="#E85454"></path>
                <polygon id="Fill-9" fill="#E85454" points="101.5635 6.1909 101.5635 24.7329 95.3105 24.7329 95.3105 6.1909 89.7445 6.1909 89.7445 0.5879 107.1295 0.5879 107.1295 6.1909"></polygon>
                <polygon id="Fill-11" fill="#E85454" points="127.1006 24.7334 127.1006 14.9744 122.6186 14.9744 122.6186 24.7334 116.3656 24.7334 116.3656 0.5884 122.6186 0.5884 122.6186 9.3724 127.1006 9.3724 127.1006 0.5884 133.3536 0.5884 133.3536 24.7334"></polygon>
                <path d="M193.5156,16.4878 L190.6626,29.1978 L196.4296,29.1978 L193.5156,16.4878 Z M200.0866,45.3798 L198.2886,37.3818 L188.8656,37.3818 L187.0676,45.3798 L176.5886,45.3798 L186.5096,3.9638 L201.0786,3.9638 L210.9986,45.3798 L200.0866,45.3798 Z" id="Fill-13" fill="#E85454"></path>
                <polygon id="Fill-15" fill="#E85454" points="245.0684 45.3799 236.3884 26.2219 236.3884 45.3799 226.2204 45.3799 226.2204 3.9639 237.0074 3.9639 245.4404 22.6879 245.4404 3.9639 255.6084 3.9639 255.6084 45.3799"></polygon>
                <path d="M291.6982,24.6719 C291.6982,23.3079 291.5322,22.0269 291.2022,20.8279 C290.8712,19.6299 290.4162,18.5649 289.8382,17.6349 C289.2592,16.7049 288.5772,15.9099 287.7922,15.2479 C287.0072,14.5879 286.1592,14.1319 285.2502,13.8839 L285.2502,35.4599 C286.1592,35.2119 287.0072,34.7369 287.7922,34.0339 C288.5772,33.3309 289.2592,32.5049 289.8382,31.5539 C290.4162,30.6039 290.8712,29.5289 291.2022,28.3299 C291.5322,27.1319 291.6982,25.9119 291.6982,24.6719 M302.7342,24.6719 C302.7342,27.6899 302.2382,30.4589 301.2462,32.9799 C300.2542,35.5009 298.8482,37.6829 297.0302,39.5209 C295.2112,41.3599 292.9782,42.7979 290.3342,43.8299 C287.6882,44.8639 284.7322,45.3799 281.4682,45.3799 L274.4622,45.3799 L274.4622,3.9639 L281.4682,3.9639 C284.7322,3.9639 287.6882,4.4809 290.3342,5.5139 C292.9782,6.5469 295.2112,7.9939 297.0302,9.8539 C298.8482,11.7139 300.2542,13.9049 301.2462,16.4259 C302.2382,18.9479 302.7342,21.6959 302.7342,24.6719" id="Fill-17" fill="#E85454"></path>
                <g id="Group-21" transform="translate(354.000000, 0.000000)">
                    <mask id="mask-4" fill="white">
                        <use xlink:href="#path-3"></use>
                    </mask>
                    <g id="Clip-20"></g>
                    <path d="M29.0859,13.2017 C29.0859,14.5657 28.8889,15.8787 28.4969,17.1387 C28.1039,18.4007 27.6389,19.5057 27.1019,20.4557 C26.2739,21.8617 25.2729,23.0287 24.0949,23.9587 C22.9169,24.8887 21.6659,25.7677 20.3439,26.5937 C19.2279,27.2977 18.1629,27.9897 17.1499,28.6707 C16.1379,29.3527 15.2179,30.0457 14.3919,30.7477 C13.5649,31.4517 12.8729,32.2157 12.3149,33.0417 C11.7569,33.8687 11.3739,34.7787 11.1679,35.7707 L28.4659,35.7707 L28.4659,45.3797 L0.0079,45.3797 L0.0079,38.9317 C0.0079,36.2447 0.2759,33.9937 0.8139,32.1737 C1.3509,30.3557 2.1559,28.7237 3.2319,27.2767 C4.2649,25.8287 5.5349,24.5277 7.0449,23.3697 C8.5529,22.2137 10.3609,20.9727 12.4699,19.6497 C13.5019,19.0297 14.3089,18.5247 14.8879,18.1307 C15.4659,17.7387 16.0439,17.2537 16.6239,16.6737 C17.5739,15.7237 18.0499,14.5657 18.0499,13.2017 C18.0499,12.8717 17.9969,12.5107 17.8949,12.1167 C17.7909,11.7247 17.6059,11.3637 17.3369,11.0317 C17.0669,10.7017 16.7269,10.4227 16.3139,10.1947 C15.8999,9.9687 15.3839,9.8537 14.7639,9.8537 C14.1029,9.8537 13.3689,9.9067 12.5629,10.0087 C11.7569,10.1127 10.8059,10.3707 9.7109,10.7837 C8.6149,11.1977 7.3239,11.8177 5.8359,12.6437 C4.3479,13.4717 2.5909,14.6077 0.5649,16.0537 L0.5649,4.8937 C1.9299,3.9857 3.2009,3.2307 4.3789,2.6307 C5.5569,2.0327 6.7039,1.5457 7.8189,1.1737 C8.9359,0.8017 10.0409,0.5337 11.1369,0.3677 C12.2319,0.2027 13.3789,0.1197 14.5779,0.1197 C17.3469,0.1197 19.6619,0.5137 21.5219,1.2977 C23.3819,2.0837 24.8699,3.0957 25.9849,4.3357 C27.1019,5.5757 27.8979,6.9817 28.3729,8.5517 C28.8479,10.1227 29.0859,11.6737 29.0859,13.2017" id="Fill-19" fill="#E85454" mask="url(#mask-4)"></path>
                </g>
                <path d="M419.2998,31.0576 C419.2998,29.3646 418.8348,28.0726 417.9048,27.1826 C416.9748,26.2936 415.7858,25.8506 414.3398,25.8506 C412.8928,25.8506 411.6948,26.2936 410.7438,27.1826 C409.7928,28.0726 409.3188,29.3646 409.3188,31.0576 C409.3188,32.7526 409.7928,34.0436 410.7438,34.9326 C411.6948,35.8226 412.8928,36.2666 414.3398,36.2666 C415.7858,36.2666 416.9748,35.8226 417.9048,34.9326 C418.8348,34.0436 419.2998,32.7526 419.2998,31.0576 M430.2748,31.0576 C430.2748,33.2896 429.8808,35.3156 429.0958,37.1336 C428.3108,38.9536 427.2258,40.5236 425.8408,41.8456 C424.4558,43.1686 422.7808,44.1926 420.8198,44.9146 C418.8558,45.6376 416.6958,45.9996 414.3398,45.9996 C411.9848,45.9996 409.8228,45.6376 407.8618,44.9146 C405.8978,44.1926 404.2028,43.1686 402.7778,41.8456 C401.3508,40.5236 400.2448,38.9536 399.4598,37.1336 C398.6748,35.3156 398.2818,33.2896 398.2818,31.0576 C398.2818,28.1646 398.8088,25.3326 399.8628,22.5636 C400.9168,19.7956 402.2908,17.1076 403.9868,14.5036 C405.6388,11.8996 407.4678,9.4506 409.4728,7.1566 C411.4778,4.8626 413.4098,2.7246 415.2698,0.7396 L429.0958,0.7396 C426.4918,3.1796 423.9288,5.7616 421.4078,8.4896 C418.8868,11.2176 416.5298,13.9456 414.3398,16.6736 C414.7528,16.5096 415.2178,16.4256 415.7358,16.4256 L417.1928,16.4256 C418.7628,16.4256 420.3228,16.7576 421.8728,17.4176 C423.4228,18.0796 424.8188,19.0406 426.0578,20.3006 C427.2978,21.5616 428.3108,23.1016 429.0958,24.9196 C429.8808,26.7396 430.2748,28.7856 430.2748,31.0576" id="Fill-22" fill="#E85454"></path>
                <polygon id="Fill-24" fill="#E85454" points="455.9775 6.1909 455.9775 24.7329 449.7245 24.7329 449.7245 6.1909 444.1585 6.1909 444.1585 0.5879 461.5435 0.5879 461.5435 6.1909"></polygon>
                <polygon id="Fill-26" fill="#E85454" points="481.5146 24.7334 481.5146 14.9744 477.0326 14.9744 477.0326 24.7334 470.7796 24.7334 470.7796 0.5884 477.0326 0.5884 477.0326 9.3724 481.5146 9.3724 481.5146 0.5884 487.7676 0.5884 487.7676 24.7334"></polygon>
            </g>
        </g>
    </g>
</svg>